<svg width="284" height="75" viewBox="0 0 284 75" fill="none" xmlns="http://www.w3.org/2000/svg">
<path d="M243.764 1C249.373 1.00004 254.55 1.88059 259.282 3.65527C264.004 5.42604 268.117 7.95726 271.609 11.25H271.61C275.101 14.4774 277.803 18.2991 279.713 22.7061C281.698 27.0728 282.684 31.888 282.684 37.1357C282.684 42.3217 281.698 47.1344 279.716 51.5605C277.806 55.9682 275.105 59.8208 271.617 63.1113L271.61 63.1182C268.117 66.3477 264.004 68.8457 259.282 70.6162C254.55 72.3909 249.373 73.2724 243.764 73.2725C238.216 73.2725 233.041 72.3909 228.248 70.6182L228.244 70.6162C223.523 68.8457 219.409 66.3477 215.916 63.1182L215.909 63.1113C212.421 59.8203 209.688 55.9677 207.715 51.5605L207.709 51.5488V51.5479C205.795 47.1248 204.843 42.3165 204.843 37.1357C204.843 31.8926 205.794 27.0818 207.712 22.7178L207.715 22.7109C209.566 18.5776 212.085 14.9592 215.271 11.8623L215.916 11.25C219.409 7.957 223.522 5.42614 228.244 3.65527L228.248 3.6543C233.041 1.8816 238.216 1 243.764 1ZM34.3516 2.53613C40.7298 2.53613 46.2853 3.57709 50.9873 5.69629H50.9863C55.748 7.81342 59.4555 10.8746 62.0664 14.8887L62.3076 15.2617C64.7647 19.1437 65.9756 23.6962 65.9756 28.8799C65.9756 34.2305 64.6855 38.9087 62.0664 42.8711C59.4554 46.8211 55.7491 49.8813 50.9922 52.0615L50.9873 52.0635C46.2853 54.1827 40.7298 55.2236 34.3516 55.2236H25.6562V71.7363H1V2.53613H34.3516ZM128.03 2.53613V21.624H95.6787V27.4961H124.095V45.8164H95.6787V52.6484H129.278V71.7363H71.4062V2.53613H128.03ZM169.352 2.53613C175.73 2.53613 181.285 3.57709 185.987 5.69629H185.986C190.748 7.81342 194.455 10.8746 197.066 14.8887L197.308 15.2617C199.765 19.1437 200.976 23.6962 200.976 28.8799C200.976 34.2305 199.685 38.9087 197.066 42.8711L197.062 42.8779C194.98 45.9736 192.204 48.4812 188.757 50.4102L202.242 70.1719L203.309 71.7363H176.692L176.395 71.2949L165.295 54.8398H160.656V71.7363H136V2.53613H169.352ZM243.764 21.3359C241.779 21.3359 239.927 21.6957 238.2 22.4092C236.54 23.1216 235.052 24.1615 233.734 25.5391L233.733 25.5381C232.499 26.8317 231.511 28.468 230.783 30.4697L230.779 30.4795C230.061 32.3951 229.691 34.6086 229.691 37.1357C229.691 39.6582 230.06 41.9052 230.779 43.8887C231.503 45.8194 232.49 47.4601 233.731 48.8252C235.047 50.1377 236.535 51.1479 238.2 51.8623C239.927 52.5758 241.778 52.9355 243.764 52.9355C245.751 52.9355 247.568 52.5755 249.226 51.8652L249.237 51.8604C250.969 51.1439 252.452 50.1331 253.696 48.8291L253.938 48.5693C255.131 47.2553 256.068 45.6988 256.747 43.8887C257.467 41.9052 257.835 39.6583 257.835 37.1357C257.835 34.6086 257.465 32.3951 256.747 30.4795L256.743 30.4697C256.019 28.4774 255.004 26.8468 253.712 25.5547L253.696 25.5391L253.681 25.5225C252.436 24.1598 250.959 23.1244 249.237 22.4121L249.226 22.4072C247.568 21.6969 245.751 21.336 243.764 21.3359ZM160.656 35.752H167.912C170.925 35.7519 172.926 35.0716 174.133 33.917L174.148 33.9033C175.443 32.7168 176.128 31.0829 176.128 28.8799C176.128 26.6771 175.443 25.0439 174.148 23.8574L174.141 23.8496L174.133 23.8428C172.926 22.6882 170.925 22.0078 167.912 22.0078H160.656V35.752ZM25.6562 35.752H32.9121C35.9255 35.7519 37.9258 35.0716 39.1328 33.917L39.1484 33.9033C40.4428 32.7168 41.1279 31.0829 41.1279 28.8799C41.1279 26.6771 40.4426 25.0439 39.1484 23.8574L39.1406 23.8496L39.1328 23.8428C37.9258 22.6882 35.9255 22.0078 32.9121 22.0078H25.6562V35.752Z" stroke="white" stroke-width="2"/>
</svg>
