<svg width="288" height="79" viewBox="0 0 288 79" fill="none" xmlns="http://www.w3.org/2000/svg">
<mask id="path-1-outside-1_37207_26" maskUnits="userSpaceOnUse" x="3" y="3" width="285" height="75" fill="black">
<rect fill="white" x="3" y="3" width="285" height="75"/>
<path d="M5.472 74V6.8H37.824C44.096 6.8 49.504 7.824 54.048 9.872C58.656 11.92 62.208 14.864 64.704 18.704C67.2 22.48 68.448 26.96 68.448 32.144C68.448 37.328 67.2 41.808 64.704 45.584C62.208 49.36 58.656 52.304 54.048 54.416C49.504 56.464 44.096 57.488 37.824 57.488H18.048L28.128 47.792V74H5.472ZM28.128 50.288L18.048 40.016H36.384C39.52 40.016 41.824 39.312 43.296 37.904C44.832 36.496 45.6 34.576 45.6 32.144C45.6 29.712 44.832 27.792 43.296 26.384C41.824 24.976 39.52 24.272 36.384 24.272H18.048L28.128 14V50.288ZM96.6143 31.76H126.566V48.08H96.6143V31.76ZM98.1503 56.912H131.75V74H75.8783V6.8H130.502V23.888H98.1503V56.912ZM140.472 74V6.8H172.824C179.096 6.8 184.504 7.824 189.048 9.872C193.656 11.92 197.208 14.864 199.704 18.704C202.2 22.48 203.448 26.96 203.448 32.144C203.448 37.328 202.2 41.808 199.704 45.584C197.208 49.296 193.656 52.144 189.048 54.128C184.504 56.112 179.096 57.104 172.824 57.104H153.048L163.128 47.792V74H140.472ZM180.696 74L164.184 49.52H188.184L204.888 74H180.696ZM163.128 50.288L153.048 40.016H171.384C174.52 40.016 176.824 39.312 178.296 37.904C179.832 36.496 180.6 34.576 180.6 32.144C180.6 29.712 179.832 27.792 178.296 26.384C176.824 24.976 174.52 24.272 171.384 24.272H153.048L163.128 14V50.288ZM247.235 75.536C241.795 75.536 236.739 74.672 232.067 72.944C227.459 71.216 223.459 68.784 220.067 65.648C216.675 62.448 214.019 58.704 212.099 54.416C210.243 50.128 209.315 45.456 209.315 40.4C209.315 35.28 210.243 30.608 212.099 26.384C214.019 22.096 216.675 18.384 220.067 15.248C223.459 12.048 227.459 9.584 232.067 7.856C236.739 6.128 241.795 5.264 247.235 5.264C252.739 5.264 257.795 6.128 262.403 7.856C267.011 9.584 271.011 12.048 274.403 15.248C277.795 18.384 280.419 22.096 282.275 26.384C284.195 30.608 285.155 35.28 285.155 40.4C285.155 45.456 284.195 50.128 282.275 54.416C280.419 58.704 277.795 62.448 274.403 65.648C271.011 68.784 267.011 71.216 262.403 72.944C257.795 74.672 252.739 75.536 247.235 75.536ZM247.235 57.2C249.347 57.2 251.299 56.816 253.091 56.048C254.947 55.28 256.547 54.192 257.891 52.784C259.299 51.312 260.387 49.552 261.155 47.504C261.923 45.392 262.307 43.024 262.307 40.4C262.307 37.776 261.923 35.44 261.155 33.392C260.387 31.28 259.299 29.52 257.891 28.112C256.547 26.64 254.947 25.52 253.091 24.752C251.299 23.984 249.347 23.6 247.235 23.6C245.123 23.6 243.139 23.984 241.283 24.752C239.491 25.52 237.891 26.64 236.483 28.112C235.139 29.52 234.083 31.28 233.315 33.392C232.547 35.44 232.163 37.776 232.163 40.4C232.163 43.024 232.547 45.392 233.315 47.504C234.083 49.552 235.139 51.312 236.483 52.784C237.891 54.192 239.491 55.28 241.283 56.048C243.139 56.816 245.123 57.2 247.235 57.2Z"/>
</mask>
<path d="M5.472 74H3.472V76H5.472V74ZM5.472 6.8V4.8H3.472V6.8H5.472ZM54.048 9.872L53.2262 11.6954L53.2357 11.6996L54.048 9.872ZM64.704 18.704L63.0271 19.794L63.0313 19.8004L63.0356 19.8069L64.704 18.704ZM64.704 45.584L63.0356 44.4811L63.0356 44.4811L64.704 45.584ZM54.048 54.416L54.8698 56.2394L54.8813 56.2341L54.048 54.416ZM18.048 57.488L16.6615 56.0466L13.0838 59.488H18.048V57.488ZM28.128 47.792H30.128V43.0931L26.7415 46.3506L28.128 47.792ZM28.128 74V76H30.128V74H28.128ZM28.128 50.288L26.7005 51.6888L30.128 55.1816V50.288H28.128ZM18.048 40.016V38.016H13.2833L16.6205 41.4168L18.048 40.016ZM43.296 37.904L41.9446 36.4297L41.9289 36.444L41.9136 36.4587L43.296 37.904ZM43.296 26.384L41.9136 27.8293L41.9289 27.844L41.9446 27.8583L43.296 26.384ZM18.048 24.272L16.6205 22.8712L13.2833 26.272H18.048V24.272ZM28.128 14H30.128V9.10641L26.7005 12.5992L28.128 14ZM5.472 74H7.472V6.8H5.472H3.472V74H5.472ZM5.472 6.8V8.8H37.824V6.8V4.8H5.472V6.8ZM37.824 6.8V8.8C43.8835 8.8 48.9982 9.78976 53.2262 11.6954L54.048 9.872L54.8698 8.04863C50.0098 5.85823 44.3085 4.8 37.824 4.8V6.8ZM54.048 9.872L53.2357 11.6996C57.5273 13.607 60.763 16.3107 63.0271 19.794L64.704 18.704L66.3809 17.614C63.653 13.4173 59.7847 10.233 54.8603 8.04437L54.048 9.872ZM64.704 18.704L63.0356 19.8069C65.2851 23.21 66.448 27.2936 66.448 32.144H68.448H70.448C70.448 26.6264 69.1149 21.75 66.3724 17.6011L64.704 18.704ZM68.448 32.144H66.448C66.448 36.9944 65.2851 41.078 63.0356 44.4811L64.704 45.584L66.3724 46.6869C69.1149 42.538 70.448 37.6616 70.448 32.144H68.448ZM64.704 45.584L63.0356 44.4811C60.7697 47.909 57.5249 50.6224 53.2147 52.5979L54.048 54.416L54.8813 56.2341C59.7871 53.9856 63.6463 50.811 66.3724 46.6869L64.704 45.584ZM54.048 54.416L53.2262 52.5926C48.9982 54.4982 43.8835 55.488 37.824 55.488V57.488V59.488C44.3085 59.488 50.0098 58.4298 54.8698 56.2394L54.048 54.416ZM37.824 57.488V55.488H18.048V57.488V59.488H37.824V57.488ZM18.048 57.488L19.4345 58.9294L29.5145 49.2334L28.128 47.792L26.7415 46.3506L16.6615 56.0466L18.048 57.488ZM28.128 47.792H26.128V74H28.128H30.128V47.792H28.128ZM28.128 74V72H5.472V74V76H28.128V74ZM28.128 50.288L29.5555 48.8872L19.4755 38.6152L18.048 40.016L16.6205 41.4168L26.7005 51.6888L28.128 50.288ZM18.048 40.016V42.016H36.384V40.016V38.016H18.048V40.016ZM36.384 40.016V42.016C39.7651 42.016 42.6766 41.2641 44.6784 39.3493L43.296 37.904L41.9136 36.4587C40.9714 37.3599 39.2749 38.016 36.384 38.016V40.016ZM43.296 37.904L44.6475 39.3783C46.6667 37.5273 47.6 35.034 47.6 32.144H45.6H43.6C43.6 34.118 42.9973 35.4647 41.9446 36.4297L43.296 37.904ZM45.6 32.144H47.6C47.6 29.254 46.6667 26.7607 44.6475 24.9097L43.296 26.384L41.9446 27.8583C42.9973 28.8233 43.6 30.17 43.6 32.144H45.6ZM43.296 26.384L44.6784 24.9387C42.6766 23.0239 39.7651 22.272 36.384 22.272V24.272V26.272C39.2749 26.272 40.9714 26.9281 41.9136 27.8293L43.296 26.384ZM36.384 24.272V22.272H18.048V24.272V26.272H36.384V24.272ZM18.048 24.272L19.4755 25.6728L29.5555 15.4008L28.128 14L26.7005 12.5992L16.6205 22.8712L18.048 24.272ZM28.128 14H26.128V50.288H28.128H30.128V14H28.128ZM96.6143 31.76V29.76H94.6143V31.76H96.6143ZM126.566 31.76H128.566V29.76H126.566V31.76ZM126.566 48.08V50.08H128.566V48.08H126.566ZM96.6143 48.08H94.6143V50.08H96.6143V48.08ZM98.1503 56.912H96.1503V58.912H98.1503V56.912ZM131.75 56.912H133.75V54.912H131.75V56.912ZM131.75 74V76H133.75V74H131.75ZM75.8783 74H73.8783V76H75.8783V74ZM75.8783 6.8V4.8H73.8783V6.8H75.8783ZM130.502 6.8H132.502V4.8H130.502V6.8ZM130.502 23.888V25.888H132.502V23.888H130.502ZM98.1503 23.888V21.888H96.1503V23.888H98.1503ZM96.6143 31.76V33.76H126.566V31.76V29.76H96.6143V31.76ZM126.566 31.76H124.566V48.08H126.566H128.566V31.76H126.566ZM126.566 48.08V46.08H96.6143V48.08V50.08H126.566V48.08ZM96.6143 48.08H98.6143V31.76H96.6143H94.6143V48.08H96.6143ZM98.1503 56.912V58.912H131.75V56.912V54.912H98.1503V56.912ZM131.75 56.912H129.75V74H131.75H133.75V56.912H131.75ZM131.75 74V72H75.8783V74V76H131.75V74ZM75.8783 74H77.8783V6.8H75.8783H73.8783V74H75.8783ZM75.8783 6.8V8.8H130.502V6.8V4.8H75.8783V6.8ZM130.502 6.8H128.502V23.888H130.502H132.502V6.8H130.502ZM130.502 23.888V21.888H98.1503V23.888V25.888H130.502V23.888ZM98.1503 23.888H96.1503V56.912H98.1503H100.15V23.888H98.1503ZM140.472 74H138.472V76H140.472V74ZM140.472 6.8V4.8H138.472V6.8H140.472ZM189.048 9.872L188.226 11.6954L188.236 11.6996L189.048 9.872ZM199.704 18.704L198.027 19.794L198.031 19.8004L198.036 19.8069L199.704 18.704ZM199.704 45.584L201.364 46.7L201.368 46.6934L201.372 46.6869L199.704 45.584ZM189.048 54.128L188.257 52.291L188.248 52.2951L189.048 54.128ZM153.048 57.104L151.691 55.6349L147.936 59.104H153.048V57.104ZM163.128 47.792H165.128V43.2216L161.771 46.3229L163.128 47.792ZM163.128 74V76H165.128V74H163.128ZM180.696 74L179.038 75.1184L179.633 76H180.696V74ZM164.184 49.52V47.52H160.423L162.526 50.6384L164.184 49.52ZM188.184 49.52L189.836 48.3927L189.241 47.52H188.184V49.52ZM204.888 74V76H208.674L206.54 72.8727L204.888 74ZM163.128 50.288L161.701 51.6888L165.128 55.1816V50.288H163.128ZM153.048 40.016V38.016H148.283L151.621 41.4168L153.048 40.016ZM178.296 37.904L176.945 36.4297L176.929 36.444L176.914 36.4587L178.296 37.904ZM178.296 26.384L176.914 27.8293L176.929 27.844L176.945 27.8583L178.296 26.384ZM153.048 24.272L151.621 22.8712L148.283 26.272H153.048V24.272ZM163.128 14H165.128V9.10641L161.701 12.5992L163.128 14ZM140.472 74H142.472V6.8H140.472H138.472V74H140.472ZM140.472 6.8V8.8H172.824V6.8V4.8H140.472V6.8ZM172.824 6.8V8.8C178.884 8.8 183.998 9.78976 188.226 11.6954L189.048 9.872L189.87 8.04863C185.01 5.85823 179.308 4.8 172.824 4.8V6.8ZM189.048 9.872L188.236 11.6996C192.527 13.607 195.763 16.3107 198.027 19.794L199.704 18.704L201.381 17.614C198.653 13.4173 194.785 10.233 189.86 8.04437L189.048 9.872ZM199.704 18.704L198.036 19.8069C200.285 23.21 201.448 27.2936 201.448 32.144H203.448H205.448C205.448 26.6264 204.115 21.75 201.372 17.6011L199.704 18.704ZM203.448 32.144H201.448C201.448 36.9944 200.285 41.078 198.036 44.4811L199.704 45.584L201.372 46.6869C204.115 42.538 205.448 37.6616 205.448 32.144H203.448ZM199.704 45.584L198.044 44.468C195.788 47.8235 192.557 50.4399 188.257 52.291L189.048 54.128L189.839 55.965C194.755 53.8481 198.628 50.7685 201.364 46.7L199.704 45.584ZM189.048 54.128L188.248 52.2951C184.014 54.1438 178.891 55.104 172.824 55.104V57.104V59.104C179.301 59.104 184.994 58.0802 189.848 55.9609L189.048 54.128ZM172.824 57.104V55.104H153.048V57.104V59.104H172.824V57.104ZM153.048 57.104L154.405 58.5731L164.485 49.2611L163.128 47.792L161.771 46.3229L151.691 55.6349L153.048 57.104ZM163.128 47.792H161.128V74H163.128H165.128V47.792H163.128ZM163.128 74V72H140.472V74V76H163.128V74ZM180.696 74L182.354 72.8816L165.842 48.4016L164.184 49.52L162.526 50.6384L179.038 75.1184L180.696 74ZM164.184 49.52V51.52H188.184V49.52V47.52H164.184V49.52ZM188.184 49.52L186.532 50.6473L203.236 75.1273L204.888 74L206.54 72.8727L189.836 48.3927L188.184 49.52ZM204.888 74V72H180.696V74V76H204.888V74ZM163.128 50.288L164.555 48.8872L154.475 38.6152L153.048 40.016L151.621 41.4168L161.701 51.6888L163.128 50.288ZM153.048 40.016V42.016H171.384V40.016V38.016H153.048V40.016ZM171.384 40.016V42.016C174.765 42.016 177.677 41.2641 179.678 39.3493L178.296 37.904L176.914 36.4587C175.971 37.3599 174.275 38.016 171.384 38.016V40.016ZM178.296 37.904L179.647 39.3783C181.667 37.5273 182.6 35.034 182.6 32.144H180.6H178.6C178.6 34.118 177.997 35.4647 176.945 36.4297L178.296 37.904ZM180.6 32.144H182.6C182.6 29.254 181.667 26.7607 179.647 24.9097L178.296 26.384L176.945 27.8583C177.997 28.8233 178.6 30.17 178.6 32.144H180.6ZM178.296 26.384L179.678 24.9387C177.677 23.0239 174.765 22.272 171.384 22.272V24.272V26.272C174.275 26.272 175.971 26.9281 176.914 27.8293L178.296 26.384ZM171.384 24.272V22.272H153.048V24.272V26.272H171.384V24.272ZM153.048 24.272L154.475 25.6728L164.555 15.4008L163.128 14L161.701 12.5992L151.621 22.8712L153.048 24.272ZM163.128 14H161.128V50.288H163.128H165.128V14H163.128ZM232.067 72.944L231.365 74.8167L231.373 74.8198L232.067 72.944ZM220.067 65.648L218.695 67.1028L218.702 67.1097L218.71 67.1165L220.067 65.648ZM212.099 54.416L210.264 55.2104L210.269 55.2219L210.274 55.2333L212.099 54.416ZM212.099 26.384L210.274 25.5666L210.268 25.5795L212.099 26.384ZM220.067 15.248L221.425 16.7165L221.432 16.7097L221.44 16.7028L220.067 15.248ZM232.067 7.856L231.373 5.98017L231.365 5.98334L232.067 7.856ZM262.403 7.856L261.701 9.72866L261.701 9.72866L262.403 7.856ZM274.403 15.248L273.031 16.7028L273.038 16.7097L273.046 16.7165L274.403 15.248ZM282.275 26.384L280.44 27.1784L280.447 27.1951L280.455 27.2116L282.275 26.384ZM282.275 54.416L280.45 53.5987L280.445 53.6101L280.44 53.6216L282.275 54.416ZM274.403 65.648L275.761 67.1165L275.768 67.1097L275.776 67.1028L274.403 65.648ZM262.403 72.944L261.701 71.0713L261.701 71.0713L262.403 72.944ZM253.091 56.048L252.327 54.2L252.315 54.2048L252.303 54.2097L253.091 56.048ZM257.891 52.784L256.446 51.4016L256.445 51.403L257.891 52.784ZM261.155 47.504L263.028 48.2062L263.031 48.1969L263.035 48.1875L261.155 47.504ZM261.155 33.392L259.276 34.0755L259.279 34.0849L259.283 34.0942L261.155 33.392ZM257.891 28.112L256.414 29.4605L256.445 29.4941L256.477 29.5262L257.891 28.112ZM253.091 24.752L252.303 26.5903L252.315 26.5952L252.327 26.6L253.091 24.752ZM241.283 24.752L240.519 22.904L240.507 22.9088L240.495 22.9137L241.283 24.752ZM236.483 28.112L235.038 26.7296L235.037 26.731L236.483 28.112ZM233.315 33.392L235.188 34.0942L235.191 34.0849L235.195 34.0755L233.315 33.392ZM233.315 47.504L231.436 48.1875L231.439 48.1969L231.443 48.2062L233.315 47.504ZM236.483 52.784L235.006 54.1325L235.037 54.1661L235.069 54.1982L236.483 52.784ZM241.283 56.048L240.495 57.8863L240.507 57.8912L240.519 57.896L241.283 56.048ZM247.235 75.536V73.536C242.01 73.536 237.191 72.7068 232.761 71.0682L232.067 72.944L231.373 74.8198C236.287 76.6372 241.58 77.536 247.235 77.536V75.536ZM232.067 72.944L232.769 71.0713C228.388 69.4283 224.615 67.1283 221.425 64.1795L220.067 65.648L218.71 67.1165C222.304 70.4397 226.53 73.0037 231.365 74.8167L232.067 72.944ZM220.067 65.648L221.44 64.1932C218.241 61.1752 215.738 57.6483 213.925 53.5987L212.099 54.416L210.274 55.2333C212.301 59.7597 215.11 63.7208 218.695 67.1028L220.067 65.648ZM212.099 54.416L213.935 53.6216C212.196 49.6044 211.315 45.2054 211.315 40.4H209.315H207.315C207.315 45.7066 208.291 50.6516 210.264 55.2104L212.099 54.416ZM209.315 40.4H211.315C211.315 35.5265 212.197 31.1324 213.93 27.1885L212.099 26.384L210.268 25.5795C208.289 30.0836 207.315 35.0335 207.315 40.4H209.315ZM212.099 26.384L213.925 27.2013C215.736 23.1554 218.235 19.6661 221.425 16.7165L220.067 15.248L218.71 13.7795C215.116 17.1019 212.302 21.0366 210.274 25.5667L212.099 26.384ZM220.067 15.248L221.44 16.7028C224.628 13.6952 228.396 11.3685 232.769 9.72866L232.067 7.856L231.365 5.98334C226.522 7.79944 222.291 10.4008 218.695 13.7932L220.067 15.248ZM232.067 7.856L232.761 9.73181C237.191 8.09319 242.01 7.264 247.235 7.264V5.264V3.264C241.58 3.264 236.287 4.16281 231.373 5.98019L232.067 7.856ZM247.235 5.264V7.264C252.528 7.264 257.343 8.09424 261.701 9.72866L262.403 7.856L263.105 5.98334C258.248 4.16176 252.951 3.264 247.235 3.264V5.264ZM262.403 7.856L261.701 9.72866C266.074 11.3685 269.843 13.6952 273.031 16.7028L274.403 15.248L275.776 13.7932C272.18 10.4008 267.948 7.79944 263.105 5.98334L262.403 7.856ZM274.403 15.248L273.046 16.7165C276.231 19.6613 278.693 23.1429 280.44 27.1784L282.275 26.384L284.111 25.5896C282.145 21.0491 279.36 17.1067 275.761 13.7795L274.403 15.248ZM282.275 26.384L280.455 27.2116C282.245 31.1499 283.155 35.5357 283.155 40.4H285.155H287.155C287.155 35.0243 286.146 30.0661 284.096 25.5564L282.275 26.384ZM285.155 40.4H283.155C283.155 45.1961 282.246 49.5869 280.45 53.5987L282.275 54.416L284.101 55.2333C286.144 50.6691 287.155 45.7159 287.155 40.4H285.155ZM282.275 54.416L280.44 53.6216C278.691 57.6608 276.225 61.18 273.031 64.1932L274.403 65.648L275.776 67.1028C279.366 63.716 282.147 59.7472 284.111 55.2104L282.275 54.416ZM274.403 65.648L273.046 64.1795C269.856 67.1283 266.082 69.4283 261.701 71.0713L262.403 72.944L263.105 74.8167C267.94 73.0037 272.167 70.4397 275.761 67.1165L274.403 65.648ZM262.403 72.944L261.701 71.0713C257.343 72.7058 252.528 73.536 247.235 73.536V75.536V77.536C252.951 77.536 258.248 76.6382 263.105 74.8167L262.403 72.944ZM247.235 57.2V59.2C249.595 59.2 251.818 58.7696 253.879 57.8863L253.091 56.048L252.303 54.2097C250.78 54.8624 249.099 55.2 247.235 55.2V57.2ZM253.091 56.048L253.856 57.896C255.961 57.025 257.795 55.7809 259.338 54.165L257.891 52.784L256.445 51.403C255.299 52.6031 253.934 53.535 252.327 54.2L253.091 56.048ZM257.891 52.784L259.337 54.1664C260.945 52.4849 262.172 50.4886 263.028 48.2062L261.155 47.504L259.283 46.8018C258.602 48.6154 257.653 50.1391 256.446 51.4016L257.891 52.784ZM261.155 47.504L263.035 48.1875C263.895 45.8231 264.307 43.2188 264.307 40.4H262.307H260.307C260.307 42.8292 259.952 44.9609 259.276 46.8205L261.155 47.504ZM262.307 40.4H264.307C264.307 37.5828 263.895 35.0022 263.028 32.6898L261.155 33.392L259.283 34.0942C259.951 35.8778 260.307 37.9692 260.307 40.4H262.307ZM261.155 33.392L263.035 32.7085C262.18 30.3573 260.945 28.3375 259.305 26.6978L257.891 28.112L256.477 29.5262C257.653 30.7025 258.595 32.2027 259.276 34.0755L261.155 33.392ZM257.891 28.112L259.368 26.7635C257.825 25.073 255.981 23.7833 253.856 22.904L253.091 24.752L252.327 26.6C253.914 27.2567 255.27 28.207 256.414 29.4605L257.891 28.112ZM253.091 24.752L253.879 22.9137C251.818 22.0304 249.595 21.6 247.235 21.6V23.6V25.6C249.099 25.6 250.78 25.9376 252.303 26.5903L253.091 24.752ZM247.235 23.6V21.6C244.875 21.6 242.629 22.0305 240.519 22.904L241.283 24.752L242.048 26.6C243.649 25.9375 245.372 25.6 247.235 25.6V23.6ZM241.283 24.752L240.495 22.9137C238.445 23.7926 236.624 25.0718 235.038 26.7296L236.483 28.112L237.929 29.4944C239.159 28.2082 240.538 27.2474 242.071 26.5903L241.283 24.752ZM236.483 28.112L235.037 26.731C233.474 28.3677 232.284 30.3765 231.436 32.7085L233.315 33.392L235.195 34.0755C235.883 32.1835 236.804 30.6723 237.93 29.493L236.483 28.112ZM233.315 33.392L231.443 32.6898C230.575 35.0022 230.163 37.5828 230.163 40.4H232.163H234.163C234.163 37.9692 234.519 35.8778 235.188 34.0942L233.315 33.392ZM232.163 40.4H230.163C230.163 43.2188 230.576 45.8231 231.436 48.1875L233.315 47.504L235.195 46.8205C234.519 44.9609 234.163 42.8292 234.163 40.4H232.163ZM233.315 47.504L231.443 48.2062C232.291 50.4696 233.474 52.4548 235.006 54.1325L236.483 52.784L237.96 51.4355C236.804 50.1692 235.875 48.6344 235.188 46.8018L233.315 47.504ZM236.483 52.784L235.069 54.1982C236.653 55.7822 238.465 57.0159 240.495 57.8863L241.283 56.048L242.071 54.2097C240.518 53.5441 239.129 52.6018 237.897 51.3698L236.483 52.784ZM241.283 56.048L240.519 57.896C242.629 58.7695 244.875 59.2 247.235 59.2V57.2V55.2C245.372 55.2 243.649 54.8625 242.048 54.2L241.283 56.048Z" fill="white" mask="url(#path-1-outside-1_37207_26)"/>
</svg>
