<svg width="409" height="72" viewBox="0 0 409 72" fill="none" xmlns="http://www.w3.org/2000/svg">
<path d="M65.0156 1V20.5684H45.3359V70.2002H20.6797V20.5684H1V1H65.0156ZM102.253 1C108.631 1.00005 114.186 2.041 118.888 4.16016H118.887C123.648 6.27719 127.355 9.33872 129.966 13.3525C132.585 17.3149 133.877 21.9931 133.877 27.3438C133.877 32.6944 132.586 37.3726 129.967 41.335L129.962 41.3418C127.88 44.4375 125.104 46.9451 121.657 48.874L134.014 66.9824L162.596 1.59961L162.857 1H186.438L186.7 1.59961L216.076 68.7998L216.688 70.2002H191.049L190.803 69.5586L186.548 58.4883H162.364L158.109 69.5586L157.862 70.2002H109.593L109.296 69.7588L98.1963 53.3037H93.5566V70.2002H68.9004V1H102.253ZM232.692 1L232.945 1.62207L248.024 38.5996L263.546 1.61328L263.803 1H344.618V20.0879H312.267V25.96H340.683V44.2803H312.267V51.1123H345.866V70.2002H287.994V1.60059L287.661 2.38965L259.245 69.5898L258.986 70.2002H235.389L235.131 69.5898L206.715 2.38965L206.127 1H232.692ZM377.244 1V50.6318H407.58V70.2002H352.588V1H377.244ZM169.406 40.168H179.506L174.456 27.0283L169.406 40.168ZM93.5566 34.2158H100.812C103.826 34.2158 105.826 33.5363 107.033 32.3818L107.041 32.374L107.049 32.3672C108.343 31.1807 109.028 29.5467 109.028 27.3438C109.028 25.1409 108.343 23.5077 107.049 22.3213L107.041 22.3145L107.033 22.3066C105.826 21.1521 103.826 20.4717 100.812 20.4717H93.5566V34.2158Z" stroke="white" stroke-width="2"/>
</svg>
