<svg width="410" height="77" viewBox="0 0 410 77" fill="none" xmlns="http://www.w3.org/2000/svg">
<mask id="path-1-outside-1_37209_4" maskUnits="userSpaceOnUse" x="0" y="3" width="409" height="72" fill="black">
<rect fill="white" y="3" width="409" height="72"/>
<path d="M22.064 73V23.368H2.384V5.8H64.4V23.368H44.72V73H22.064ZM70.2845 73V5.8H102.637C108.909 5.8 114.317 6.824 118.861 8.872C123.469 10.92 127.021 13.864 129.517 17.704C132.013 21.48 133.261 25.96 133.261 31.144C133.261 36.328 132.013 40.808 129.517 44.584C127.021 48.296 123.469 51.144 118.861 53.128C114.317 55.112 108.909 56.104 102.637 56.104H82.8605L92.9405 46.792V73H70.2845ZM110.509 73L93.9965 48.52H117.997L134.701 73H110.509ZM92.9405 49.288L82.8605 39.016H101.197C104.333 39.016 106.637 38.312 108.109 36.904C109.645 35.496 110.413 33.576 110.413 31.144C110.413 28.712 109.645 26.792 108.109 25.384C106.637 23.976 104.333 23.272 101.197 23.272H82.8605L92.9405 13V49.288ZM134.52 73L163.896 5.8H186.168L215.544 73H192.12L170.424 16.552H179.256L157.56 73H134.52ZM151.992 61.288L157.752 44.968H188.664L194.424 61.288H151.992ZM236.436 73L208.02 5.8H232.404L255.54 62.536H241.044L264.852 5.8H287.124L258.708 73H236.436ZM310.114 30.76H340.066V47.08H310.114V30.76ZM311.65 55.912H345.25V73H289.378V5.8H344.002V22.888H311.65V55.912ZM353.972 73V5.8H376.628V55.432H406.964V73H353.972Z"/>
</mask>
<path d="M22.064 73H20.064V75H22.064V73ZM22.064 23.368H24.064V21.368H22.064V23.368ZM2.384 23.368H0.384V25.368H2.384V23.368ZM2.384 5.8V3.8H0.384V5.8H2.384ZM64.4 5.8H66.4V3.8H64.4V5.8ZM64.4 23.368V25.368H66.4V23.368H64.4ZM44.72 23.368V21.368H42.72V23.368H44.72ZM44.72 73V75H46.72V73H44.72ZM22.064 73H24.064V23.368H22.064H20.064V73H22.064ZM22.064 23.368V21.368H2.384V23.368V25.368H22.064V23.368ZM2.384 23.368H4.384V5.8H2.384H0.384V23.368H2.384ZM2.384 5.8V7.8H64.4V5.8V3.8H2.384V5.8ZM64.4 5.8H62.4V23.368H64.4H66.4V5.8H64.4ZM64.4 23.368V21.368H44.72V23.368V25.368H64.4V23.368ZM44.72 23.368H42.72V73H44.72H46.72V23.368H44.72ZM44.72 73V71H22.064V73V75H44.72V73ZM70.2845 73H68.2845V75H70.2845V73ZM70.2845 5.8V3.8H68.2845V5.8H70.2845ZM118.861 8.872L118.039 10.6954L118.048 10.6996L118.861 8.872ZM129.517 17.704L127.84 18.794L127.844 18.8004L127.848 18.8069L129.517 17.704ZM129.517 44.584L131.176 45.7L131.181 45.6934L131.185 45.6869L129.517 44.584ZM118.861 53.128L118.07 51.291L118.06 51.2951L118.861 53.128ZM82.8605 56.104L81.5034 54.6349L77.7482 58.104H82.8605V56.104ZM92.9405 46.792H94.9405V42.2216L91.5834 45.3229L92.9405 46.792ZM92.9405 73V75H94.9405V73H92.9405ZM110.509 73L108.85 74.1184L109.445 75H110.509V73ZM93.9965 48.52V46.52H90.235L92.3384 49.6384L93.9965 48.52ZM117.997 48.52L119.649 47.3927L119.053 46.52H117.997V48.52ZM134.701 73V75H138.486L136.353 71.8727L134.701 73ZM92.9405 49.288L91.513 50.6888L94.9405 54.1816V49.288H92.9405ZM82.8605 39.016V37.016H78.0958L81.433 40.4168L82.8605 39.016ZM108.109 36.904L106.757 35.4297L106.741 35.444L106.726 35.4587L108.109 36.904ZM108.109 25.384L106.726 26.8293L106.741 26.844L106.757 26.8583L108.109 25.384ZM82.8605 23.272L81.433 21.8712L78.0958 25.272H82.8605V23.272ZM92.9405 13H94.9405V8.10641L91.513 11.5992L92.9405 13ZM70.2845 73H72.2845V5.8H70.2845H68.2845V73H70.2845ZM70.2845 5.8V7.8H102.637V5.8V3.8H70.2845V5.8ZM102.637 5.8V7.8C108.696 7.8 113.811 8.78976 118.039 10.6954L118.861 8.872L119.682 7.04863C114.822 4.85823 109.121 3.8 102.637 3.8V5.8ZM118.861 8.872L118.048 10.6996C122.34 12.607 125.576 15.3107 127.84 18.794L129.517 17.704L131.193 16.614C128.466 12.4173 124.597 9.23299 119.673 7.04437L118.861 8.872ZM129.517 17.704L127.848 18.8069C130.098 22.21 131.261 26.2936 131.261 31.144H133.261H135.261C135.261 25.6264 133.927 20.75 131.185 16.6011L129.517 17.704ZM133.261 31.144H131.261C131.261 35.9944 130.098 40.078 127.848 43.4811L129.517 44.584L131.185 45.6869C133.927 41.538 135.261 36.6616 135.261 31.144H133.261ZM129.517 44.584L127.857 43.468C125.601 46.8235 122.369 49.4399 118.07 51.291L118.861 53.128L119.651 54.965C124.568 52.8481 128.44 49.7685 131.176 45.7L129.517 44.584ZM118.861 53.128L118.06 51.2951C113.826 53.1438 108.703 54.104 102.637 54.104V56.104V58.104C109.114 58.104 114.807 57.0802 119.661 54.9609L118.861 53.128ZM102.637 56.104V54.104H82.8605V56.104V58.104H102.637V56.104ZM82.8605 56.104L84.2176 57.5731L94.2976 48.2611L92.9405 46.792L91.5834 45.3229L81.5034 54.6349L82.8605 56.104ZM92.9405 46.792H90.9405V73H92.9405H94.9405V46.792H92.9405ZM92.9405 73V71H70.2845V73V75H92.9405V73ZM110.509 73L112.167 71.8816L95.6546 47.4016L93.9965 48.52L92.3384 49.6384L108.85 74.1184L110.509 73ZM93.9965 48.52V50.52H117.997V48.52V46.52H93.9965V48.52ZM117.997 48.52L116.344 49.6473L133.048 74.1273L134.701 73L136.353 71.8727L119.649 47.3927L117.997 48.52ZM134.701 73V71H110.509V73V75H134.701V73ZM92.9405 49.288L94.368 47.8872L84.288 37.6152L82.8605 39.016L81.433 40.4168L91.513 50.6888L92.9405 49.288ZM82.8605 39.016V41.016H101.197V39.016V37.016H82.8605V39.016ZM101.197 39.016V41.016C104.578 41.016 107.489 40.2641 109.491 38.3493L108.109 36.904L106.726 35.4587C105.784 36.3599 104.087 37.016 101.197 37.016V39.016ZM108.109 36.904L109.46 38.3783C111.479 36.5273 112.413 34.034 112.413 31.144H110.413H108.413C108.413 33.118 107.81 34.4647 106.757 35.4297L108.109 36.904ZM110.413 31.144H112.413C112.413 28.254 111.479 25.7607 109.46 23.9097L108.109 25.384L106.757 26.8583C107.81 27.8233 108.413 29.17 108.413 31.144H110.413ZM108.109 25.384L109.491 23.9387C107.489 22.0239 104.578 21.272 101.197 21.272V23.272V25.272C104.087 25.272 105.784 25.9281 106.726 26.8293L108.109 25.384ZM101.197 23.272V21.272H82.8605V23.272V25.272H101.197V23.272ZM82.8605 23.272L84.288 24.6728L94.368 14.4008L92.9405 13L91.513 11.5992L81.433 21.8712L82.8605 23.272ZM92.9405 13H90.9405V49.288H92.9405H94.9405V13H92.9405ZM134.52 73L132.687 72.1989L131.463 75H134.52V73ZM163.896 5.8V3.8H162.587L162.063 4.99891L163.896 5.8ZM186.168 5.8L188 4.99891L187.476 3.8H186.168V5.8ZM215.544 73V75H218.601L217.376 72.1989L215.544 73ZM192.12 73L190.253 73.7175L190.746 75H192.12V73ZM170.424 16.552V14.552H167.512L168.557 17.2695L170.424 16.552ZM179.256 16.552L181.123 17.2695L182.167 14.552H179.256V16.552ZM157.56 73V75H158.934L159.427 73.7175L157.56 73ZM151.992 61.288L150.106 60.6224L149.165 63.288H151.992V61.288ZM157.752 44.968V42.968H156.337L155.866 44.3024L157.752 44.968ZM188.664 44.968L190.55 44.3024L190.079 42.968H188.664V44.968ZM194.424 61.288V63.288H197.251L196.31 60.6224L194.424 61.288ZM134.52 73L136.352 73.8011L165.728 6.60108L163.896 5.8L162.063 4.99891L132.687 72.1989L134.52 73ZM163.896 5.8V7.8H186.168V5.8V3.8H163.896V5.8ZM186.168 5.8L184.335 6.60108L213.711 73.8011L215.544 73L217.376 72.1989L188 4.99891L186.168 5.8ZM215.544 73V71H192.12V73V75H215.544V73ZM192.12 73L193.987 72.2825L172.291 15.8345L170.424 16.552L168.557 17.2695L190.253 73.7175L192.12 73ZM170.424 16.552V18.552H179.256V16.552V14.552H170.424V16.552ZM179.256 16.552L177.389 15.8345L155.693 72.2825L157.56 73L159.427 73.7175L181.123 17.2695L179.256 16.552ZM157.56 73V71H134.52V73V75H157.56V73ZM151.992 61.288L153.878 61.9536L159.638 45.6336L157.752 44.968L155.866 44.3024L150.106 60.6224L151.992 61.288ZM157.752 44.968V46.968H188.664V44.968V42.968H157.752V44.968ZM188.664 44.968L186.778 45.6336L192.538 61.9536L194.424 61.288L196.31 60.6224L190.55 44.3024L188.664 44.968ZM194.424 61.288V59.288H151.992V61.288V63.288H194.424V61.288ZM236.436 73L234.594 73.7789L235.11 75H236.436V73ZM208.02 5.8V3.8H205.003L206.178 6.57893L208.02 5.8ZM232.404 5.8L234.256 5.0448L233.748 3.8H232.404V5.8ZM255.54 62.536V64.536H258.515L257.392 61.7808L255.54 62.536ZM241.044 62.536L239.2 61.7621L238.036 64.536H241.044V62.536ZM264.852 5.8V3.8H263.522L263.008 5.02611L264.852 5.8ZM287.124 5.8L288.966 6.57893L290.141 3.8H287.124V5.8ZM258.708 73V75H260.033L260.55 73.7789L258.708 73ZM236.436 73L238.278 72.2211L209.862 5.02106L208.02 5.8L206.178 6.57893L234.594 73.7789L236.436 73ZM208.02 5.8V7.8H232.404V5.8V3.8H208.02V5.8ZM232.404 5.8L230.552 6.55519L253.688 63.2912L255.54 62.536L257.392 61.7808L234.256 5.0448L232.404 5.8ZM255.54 62.536V60.536H241.044V62.536V64.536H255.54V62.536ZM241.044 62.536L242.888 63.3099L266.696 6.57388L264.852 5.8L263.008 5.02611L239.2 61.7621L241.044 62.536ZM264.852 5.8V7.8H287.124V5.8V3.8H264.852V5.8ZM287.124 5.8L285.282 5.02106L256.866 72.2211L258.708 73L260.55 73.7789L288.966 6.57893L287.124 5.8ZM258.708 73V71H236.436V73V75H258.708V73ZM310.114 30.76V28.76H308.114V30.76H310.114ZM340.066 30.76H342.066V28.76H340.066V30.76ZM340.066 47.08V49.08H342.066V47.08H340.066ZM310.114 47.08H308.114V49.08H310.114V47.08ZM311.65 55.912H309.65V57.912H311.65V55.912ZM345.25 55.912H347.25V53.912H345.25V55.912ZM345.25 73V75H347.25V73H345.25ZM289.378 73H287.378V75H289.378V73ZM289.378 5.8V3.8H287.378V5.8H289.378ZM344.002 5.8H346.002V3.8H344.002V5.8ZM344.002 22.888V24.888H346.002V22.888H344.002ZM311.65 22.888V20.888H309.65V22.888H311.65ZM310.114 30.76V32.76H340.066V30.76V28.76H310.114V30.76ZM340.066 30.76H338.066V47.08H340.066H342.066V30.76H340.066ZM340.066 47.08V45.08H310.114V47.08V49.08H340.066V47.08ZM310.114 47.08H312.114V30.76H310.114H308.114V47.08H310.114ZM311.65 55.912V57.912H345.25V55.912V53.912H311.65V55.912ZM345.25 55.912H343.25V73H345.25H347.25V55.912H345.25ZM345.25 73V71H289.378V73V75H345.25V73ZM289.378 73H291.378V5.8H289.378H287.378V73H289.378ZM289.378 5.8V7.8H344.002V5.8V3.8H289.378V5.8ZM344.002 5.8H342.002V22.888H344.002H346.002V5.8H344.002ZM344.002 22.888V20.888H311.65V22.888V24.888H344.002V22.888ZM311.65 22.888H309.65V55.912H311.65H313.65V22.888H311.65ZM353.972 73H351.972V75H353.972V73ZM353.972 5.8V3.8H351.972V5.8H353.972ZM376.628 5.8H378.628V3.8H376.628V5.8ZM376.628 55.432H374.628V57.432H376.628V55.432ZM406.964 55.432H408.964V53.432H406.964V55.432ZM406.964 73V75H408.964V73H406.964ZM353.972 73H355.972V5.8H353.972H351.972V73H353.972ZM353.972 5.8V7.8H376.628V5.8V3.8H353.972V5.8ZM376.628 5.8H374.628V55.432H376.628H378.628V5.8H376.628ZM376.628 55.432V57.432H406.964V55.432V53.432H376.628V55.432ZM406.964 55.432H404.964V73H406.964H408.964V55.432H406.964ZM406.964 73V71H353.972V73V75H406.964V73Z" fill="white" mask="url(#path-1-outside-1_37209_4)"/>
</svg>
