<svg width="15" height="28" viewBox="0 0 15 28" fill="none" xmlns="http://www.w3.org/2000/svg">
<path d="M5.03979 10.5031H2.51538V13.0178H5.03979V25.7903H8.34839V13.0178H12.0281L12.2859 10.5031H8.34839V6.84982C8.3485 6.11136 8.60652 5.49528 9.10425 5.0881C9.56396 4.71221 10.099 4.62131 10.4744 4.62131H12.3289V2.23654L9.39624 2.2258C7.50059 2.22606 6.47363 2.91671 5.88647 3.71408C5.26129 4.56342 5.03986 5.66813 5.03979 6.58322V10.5031ZM14.3289 5.42111C14.3289 6.07656 13.7996 6.62131 13.1296 6.62131H10.4744C10.4382 6.62131 10.406 6.62644 10.3835 6.63303C10.3815 6.63363 10.3777 6.634 10.3777 6.634C10.3695 6.65452 10.3484 6.71846 10.3484 6.84982V8.50314H13.1726C13.8393 8.50318 14.369 9.04409 14.3728 9.69455L14.366 9.82639L13.9441 13.9397C13.8813 14.5517 13.366 15.0177 12.7507 15.0178H10.3484V26.592C10.3484 27.2703 9.79528 27.7903 9.14819 27.7903H4.23999C3.59389 27.7903 3.03979 27.2713 3.03979 26.592V15.0178H1.71558C1.05293 15.0178 0.515526 14.4802 0.515381 13.8176V9.70334C0.515491 9.04069 1.0529 8.50314 1.71558 8.50314H3.03979V6.58322C3.03985 5.40789 3.31406 3.8341 4.27612 2.52756C5.27661 1.16887 6.92904 0.225823 9.39722 0.2258H9.40112L13.1335 0.240448L13.2556 0.247284C13.8591 0.310594 14.3289 0.820905 14.3289 1.44064V5.42111Z" fill="white"/>
</svg>
