<svg width="14" height="28" viewBox="0 0 14 28" fill="none" xmlns="http://www.w3.org/2000/svg">
<path d="M12.8561 9.49815C12.8682 9.38024 12.7757 9.27774 12.6572 9.27774H8.83324V6.62451C8.83324 5.62809 9.49364 5.39578 9.95878 5.39578C10.3411 5.39578 12.0313 5.39578 12.6147 5.39578C12.7252 5.39578 12.8136 5.30624 12.8136 5.19578V1.21457C12.8136 1.10441 12.7246 1.015 12.6144 1.01457L8.88193 1C4.51737 1 3.52412 4.26707 3.52412 6.35781V9.27774H1.2C1.08954 9.27774 1 9.36729 1 9.47774V13.5915C1 13.702 1.08954 13.7915 1.2 13.7915H3.52412C3.52412 19.0106 3.52412 25.193 3.52412 26.3665C3.52412 26.477 3.61367 26.564 3.72412 26.564H8.63324C8.7437 26.564 8.83324 26.4768 8.83324 26.3664C8.83324 25.1867 8.83324 18.951 8.83324 13.7915H12.2352C12.3377 13.7915 12.4237 13.714 12.4341 13.6119L12.8561 9.49815Z" stroke="white" stroke-width="2"/>
</svg>
