<svg width="28" height="28" viewBox="0 0 28 28" fill="none" xmlns="http://www.w3.org/2000/svg">
<path d="M13.6533 0C9.94528 0 9.48032 0.0157171 8.02405 0.0821624C6.57082 0.148499 5.57831 0.379269 4.70981 0.716807C3.81199 1.06573 3.05058 1.53258 2.29155 2.2916C1.53252 3.05063 1.06567 3.81204 0.716753 4.70987C0.379215 5.57831 0.148445 6.57082 0.0821082 8.02405C0.0156629 9.48032 0 9.94528 0 13.6533C0 17.3613 0.0156629 17.8263 0.0821082 19.2825C0.148445 20.7358 0.379215 21.7283 0.716753 22.5967C1.06567 23.4945 1.53252 24.2559 2.29155 25.015C3.05058 25.774 3.81199 26.2409 4.70981 26.5898C5.57831 26.9273 6.57082 27.1581 8.02405 27.2244C9.48032 27.2909 9.94528 27.3066 13.6533 27.3066C17.3613 27.3066 17.8263 27.2909 19.2825 27.2244C20.7358 27.1581 21.7283 26.9273 22.5967 26.5898C23.4945 26.2409 24.2559 25.774 25.015 25.015C25.774 24.2559 26.2409 23.4945 26.5898 22.5967C26.9273 21.7283 27.1581 20.7358 27.2244 19.2825C27.2909 17.8263 27.3066 17.3613 27.3066 13.6533C27.3066 9.94528 27.2909 9.48032 27.2244 8.02405C27.1581 6.57082 26.9273 5.57831 26.5898 4.70987C26.2409 3.81204 25.774 3.05063 25.015 2.2916C24.2559 1.53258 23.4945 1.06573 22.5967 0.716807C21.7283 0.379269 20.7358 0.148499 19.2825 0.0821624C17.8263 0.0157171 17.3613 0 13.6533 0ZM13.6533 2.4601C17.2989 2.4601 17.7307 2.47398 19.1704 2.53966C20.5016 2.60042 21.2245 2.82284 21.7056 3.00977C22.3429 3.25745 22.7977 3.55336 23.2755 4.0311C23.7533 4.50885 24.0491 4.96372 24.2968 5.60097C24.4838 6.08207 24.7062 6.80501 24.7669 8.13619C24.8326 9.57587 24.8465 10.0077 24.8465 13.6533C24.8465 17.2989 24.8326 17.7307 24.7669 19.1704C24.7062 20.5016 24.4838 21.2245 24.2968 21.7056C24.0491 22.3429 23.7533 22.7977 23.2755 23.2755C22.7977 23.7533 22.3429 24.0491 21.7056 24.2968C21.2245 24.4838 20.5016 24.7062 19.1704 24.7669C17.7309 24.8326 17.2991 24.8465 13.6533 24.8465C10.0074 24.8465 9.57571 24.8326 8.13619 24.7669C6.80501 24.7062 6.08207 24.4838 5.60097 24.2968C4.96367 24.0491 4.50885 23.7533 4.03105 23.2755C3.55331 22.7977 3.25739 22.3429 3.00977 21.7056C2.82279 21.2245 2.60036 20.5016 2.53961 19.1704C2.47392 17.7307 2.46005 17.2989 2.46005 13.6533C2.46005 10.0077 2.47392 9.57587 2.53961 8.13619C2.60036 6.80501 2.82279 6.08207 3.00977 5.60097C3.25739 4.96372 3.55331 4.50885 4.03105 4.0311C4.50885 3.55336 4.96367 3.25745 5.60097 3.00977C6.08207 2.82284 6.80501 2.60042 8.13619 2.53966C9.57587 2.47398 10.0077 2.4601 13.6533 2.4601Z" fill="white"/>
<path d="M13.6518 18.2043C11.1383 18.2043 9.10072 16.1667 9.10072 13.6533C9.10072 11.1397 11.1383 9.10214 13.6518 9.10214C16.1653 9.10214 18.2029 11.1397 18.2029 13.6533C18.2029 16.1667 16.1653 18.2043 13.6518 18.2043ZM13.6518 6.64209C9.77964 6.64209 6.64067 9.78106 6.64067 13.6533C6.64067 17.5254 9.77964 20.6644 13.6518 20.6644C17.524 20.6644 20.663 17.5254 20.663 13.6533C20.663 9.78106 17.524 6.64209 13.6518 6.64209Z" fill="white"/>
<path d="M22.5814 6.36517C22.5814 7.27004 21.8479 8.00354 20.943 8.00354C20.0382 8.00354 19.3046 7.27004 19.3046 6.36517C19.3046 5.4603 20.0382 4.7268 20.943 4.7268C21.8479 4.7268 22.5814 5.4603 22.5814 6.36517Z" fill="white"/>
</svg>
