<svg width="20" height="14" viewBox="0 0 20 14" fill="none" xmlns="http://www.w3.org/2000/svg">
<path d="M17.5771 2.15451C17.5421 2.10762 17.4982 2.06807 17.448 2.03814C17.3977 2.00821 17.342 1.98847 17.2841 1.98006C17.2262 1.97165 17.1672 1.97474 17.1105 1.98913C17.0538 2.00353 17.0005 2.02896 16.9536 2.06397L9.77075 7.42553C9.74506 7.4448 9.71381 7.45522 9.68169 7.45522C9.64957 7.45522 9.61832 7.4448 9.59262 7.42553L2.55075 2.04022C2.50426 2.00474 2.45124 1.97877 2.39471 1.96378C2.33818 1.9488 2.27925 1.94509 2.22129 1.95288C2.16333 1.96067 2.10747 1.9798 2.0569 2.00917C2.00634 2.03855 1.96205 2.07759 1.92657 2.12409C1.89109 2.17058 1.86512 2.2236 1.85014 2.28013C1.83515 2.33666 1.83145 2.39558 1.83923 2.45354C1.84702 2.51151 1.86615 2.56736 1.89552 2.61793C1.9249 2.6685 1.96395 2.71279 2.01044 2.74827L7.54716 6.98319L2.0713 11.1097C2.02412 11.1449 1.98434 11.1891 1.95423 11.2396C1.92411 11.2902 1.90424 11.3462 1.89577 11.4044C1.88729 11.4627 1.89037 11.522 1.90482 11.579C1.91927 11.6361 1.94482 11.6897 1.98001 11.7369C2.01519 11.7841 2.05933 11.8239 2.10989 11.854C2.16044 11.8841 2.21644 11.904 2.27468 11.9124C2.33291 11.9209 2.39225 11.9178 2.4493 11.9034C2.50634 11.8889 2.55998 11.8634 2.60716 11.8282L8.28192 7.54428L9.05083 8.13803C9.23012 8.27527 9.44922 8.35037 9.675 8.35198C9.90078 8.35359 10.1209 8.28161 10.3022 8.14694L11.1097 7.54428L16.8512 11.8282C16.8981 11.8632 16.9514 11.8886 17.0081 11.903C17.0648 11.9174 17.1238 11.9204 17.1817 11.912C17.2396 11.9036 17.2952 11.8839 17.3455 11.854C17.3958 11.8241 17.4397 11.7845 17.4747 11.7376C17.5096 11.6908 17.5351 11.6374 17.5494 11.5807C17.5638 11.524 17.5669 11.4651 17.5585 11.4072C17.5501 11.3493 17.5304 11.2936 17.5004 11.2433C17.4705 11.1931 17.431 11.1492 17.3841 11.1142L11.8533 6.9817L17.4865 2.7735C17.58 2.70294 17.6419 2.59843 17.6588 2.48258C17.6757 2.36674 17.6464 2.24888 17.5771 2.15451Z" fill="#282828"/>
<path d="M17.0234 0.25H2.47656C1.88604 0.25 1.31971 0.484584 0.902145 0.902145C0.484584 1.31971 0.25 1.88604 0.25 2.47656V11.3828C0.25 11.9733 0.484584 12.5397 0.902145 12.9572C1.31971 13.3748 1.88604 13.6094 2.47656 13.6094H17.0234C17.614 13.6094 18.1803 13.3748 18.5979 12.9572C19.0154 12.5397 19.25 11.9733 19.25 11.3828V2.47656C19.25 1.88604 19.0154 1.31971 18.5979 0.902145C18.1803 0.484584 17.614 0.25 17.0234 0.25ZM18.3594 11.3828C18.3594 11.7371 18.2186 12.0769 17.9681 12.3275C17.7176 12.578 17.3778 12.7188 17.0234 12.7188H2.47656C2.12225 12.7188 1.78245 12.578 1.53191 12.3275C1.28138 12.0769 1.14062 11.7371 1.14062 11.3828V2.47656C1.14062 2.12225 1.28138 1.78245 1.53191 1.53191C1.78245 1.28138 2.12225 1.14062 2.47656 1.14062H17.0234C17.3778 1.14062 17.7176 1.28138 17.9681 1.53191C18.2186 1.78245 18.3594 2.12225 18.3594 2.47656V11.3828Z" fill="#282828"/>
<path d="M17.5771 2.15451C17.5421 2.10762 17.4982 2.06807 17.448 2.03814C17.3977 2.00821 17.342 1.98847 17.2841 1.98006C17.2262 1.97165 17.1672 1.97474 17.1105 1.98913C17.0538 2.00353 17.0005 2.02896 16.9536 2.06397L9.77075 7.42553C9.74506 7.4448 9.71381 7.45522 9.68169 7.45522C9.64957 7.45522 9.61832 7.4448 9.59262 7.42553L2.55075 2.04022C2.50426 2.00474 2.45124 1.97877 2.39471 1.96378C2.33818 1.9488 2.27925 1.94509 2.22129 1.95288C2.16333 1.96067 2.10747 1.9798 2.0569 2.00917C2.00634 2.03855 1.96205 2.07759 1.92657 2.12409C1.89109 2.17058 1.86512 2.2236 1.85014 2.28013C1.83515 2.33666 1.83145 2.39558 1.83923 2.45354C1.84702 2.51151 1.86615 2.56736 1.89552 2.61793C1.9249 2.6685 1.96395 2.71279 2.01044 2.74827L7.54716 6.98319L2.0713 11.1097C2.02412 11.1449 1.98434 11.1891 1.95423 11.2396C1.92411 11.2902 1.90424 11.3462 1.89577 11.4044C1.88729 11.4627 1.89037 11.522 1.90482 11.579C1.91927 11.6361 1.94482 11.6897 1.98001 11.7369C2.01519 11.7841 2.05933 11.8239 2.10989 11.854C2.16044 11.8841 2.21644 11.904 2.27468 11.9124C2.33291 11.9209 2.39225 11.9178 2.4493 11.9034C2.50634 11.8889 2.55998 11.8634 2.60716 11.8282L8.28192 7.54428L9.05083 8.13803C9.23012 8.27527 9.44922 8.35037 9.675 8.35198C9.90078 8.35359 10.1209 8.28161 10.3022 8.14694L11.1097 7.54428L16.8512 11.8282C16.8981 11.8632 16.9514 11.8886 17.0081 11.903C17.0648 11.9174 17.1238 11.9204 17.1817 11.912C17.2396 11.9036 17.2952 11.8839 17.3455 11.854C17.3958 11.8241 17.4397 11.7845 17.4747 11.7376C17.5096 11.6908 17.5351 11.6374 17.5494 11.5807C17.5638 11.524 17.5669 11.4651 17.5585 11.4072C17.5501 11.3493 17.5304 11.2936 17.5004 11.2433C17.4705 11.1931 17.431 11.1492 17.3841 11.1142L11.8533 6.9817L17.4865 2.7735C17.58 2.70294 17.6419 2.59843 17.6588 2.48258C17.6757 2.36674 17.6464 2.24888 17.5771 2.15451Z" stroke="#282828" stroke-width="0.5"/>
<path d="M17.0234 0.25H2.47656C1.88604 0.25 1.31971 0.484584 0.902145 0.902145C0.484584 1.31971 0.25 1.88604 0.25 2.47656V11.3828C0.25 11.9733 0.484584 12.5397 0.902145 12.9572C1.31971 13.3748 1.88604 13.6094 2.47656 13.6094H17.0234C17.614 13.6094 18.1803 13.3748 18.5979 12.9572C19.0154 12.5397 19.25 11.9733 19.25 11.3828V2.47656C19.25 1.88604 19.0154 1.31971 18.5979 0.902145C18.1803 0.484584 17.614 0.25 17.0234 0.25ZM18.3594 11.3828C18.3594 11.7371 18.2186 12.0769 17.9681 12.3275C17.7176 12.578 17.3778 12.7188 17.0234 12.7188H2.47656C2.12225 12.7188 1.78245 12.578 1.53191 12.3275C1.28138 12.0769 1.14062 11.7371 1.14062 11.3828V2.47656C1.14062 2.12225 1.28138 1.78245 1.53191 1.53191C1.78245 1.28138 2.12225 1.14062 2.47656 1.14062H17.0234C17.3778 1.14062 17.7176 1.28138 17.9681 1.53191C18.2186 1.78245 18.3594 2.12225 18.3594 2.47656V11.3828Z" stroke="#282828" stroke-width="0.5"/>
</svg>
