<svg width="22" height="15" viewBox="0 0 22 15" fill="none" xmlns="http://www.w3.org/2000/svg">
<path d="M14.8542 8.625C13.4167 8.625 12.2667 9.00833 11.4042 9.4875C12.7458 10.6375 13.3208 11.9792 13.4167 12.075L13.5125 12.2667V14.375H21.1792V12.4583C21.0833 12.4583 19.55 8.625 14.8542 8.625Z" fill="#0499DD"/>
<path d="M14.8542 6.70833C16.7066 6.70833 18.2083 5.20662 18.2083 3.35417C18.2083 1.50171 16.7066 0 14.8542 0C13.0017 0 11.5 1.50171 11.5 3.35417C11.5 5.20662 13.0017 6.70833 14.8542 6.70833Z" fill="#0499DD"/>
<path d="M2.875 3.35417C2.875 1.53333 4.40833 0 6.22917 0C8.05 0 9.58333 1.53333 9.58333 3.35417C9.58333 5.175 8.05 6.70833 6.22917 6.70833C4.40833 6.70833 2.875 5.175 2.875 3.35417ZM6.22917 8.625C1.53333 8.625 0 12.4583 0 12.4583V14.375H12.4583V12.4583C12.4583 12.4583 10.925 8.625 6.22917 8.625Z" fill="#0499DD"/>
</svg>
