<svg width="143" height="111" viewBox="0 0 143 111" fill="none" xmlns="http://www.w3.org/2000/svg">
<path opacity="0.4" d="M92.8887 78.208C89.1464 77.0879 85.2031 73.4612 81.0586 67.3277C77.0762 61.1069 76.3171 53.88 78.7813 45.6471C81.2455 37.4142 86.5605 30.7822 94.7262 25.7509C102.892 20.7196 111.216 19.4734 119.698 22.0123C128.181 24.5512 134.438 29.0744 138.471 35.5821C142.503 42.0898 143.25 49.5848 140.711 58.0672C138.21 66.4248 133.313 74.6093 126.023 82.6208C118.856 90.6695 110.286 97.2787 100.312 102.448C90.4628 107.655 80.905 110.299 71.6385 110.38C68.1067 106.74 66.8445 102.557 67.8517 97.8294C73.5498 95.5933 78.867 92.3598 83.8031 88.1288C88.9013 83.8103 91.9298 80.5034 92.8887 78.208ZM25.7159 58.1025C22.0984 57.0197 18.2174 53.4116 14.0729 47.2782C10.0905 41.0573 9.33139 33.8305 11.7956 25.5976C14.2971 17.24 19.6121 10.6079 27.7405 5.70137C35.9063 0.670107 44.2304 -0.576092 52.7127 1.96277C61.1951 4.50163 67.3902 9.00623 71.2979 15.4766C75.3304 21.9842 76.0772 29.4793 73.5383 37.9616C71.0368 46.3192 66.1406 54.5038 58.8497 62.5152C51.6836 70.564 43.1135 77.1732 33.1394 82.3428C23.29 87.5497 13.7321 90.1935 4.46572 90.2742C0.971261 86.51 -0.291027 82.3265 0.678854 77.7238C6.50175 75.5251 11.8813 72.3103 16.8174 68.0792C21.7535 63.8482 24.7196 60.5226 25.7159 58.1025Z" fill="#FFC700"/>
</svg>
