<svg width="27" height="18" viewBox="0 0 27 18" fill="none" xmlns="http://www.w3.org/2000/svg">
<path d="M25.8893 14C24.7058 12.137 23.3208 10.4099 21.7593 8.85003C21.7309 8.81456 21.7154 8.77047 21.7154 8.72503C21.7154 8.67959 21.7309 8.6355 21.7593 8.60003C23.103 6.76602 24.2905 4.82254 25.3093 2.79003C25.4567 2.49919 25.5268 2.17531 25.5127 1.84956C25.4987 1.52381 25.4011 1.20714 25.2293 0.930028C25.0726 0.648376 24.8435 0.413676 24.5658 0.250181C24.288 0.0866858 23.9716 0.000326677 23.6493 2.80926e-05H20.6493C20.2686 0.00741492 19.898 0.12332 19.5809 0.334121C19.2638 0.544922 19.0135 0.841857 18.8593 1.19003C17.9879 3.11719 16.9437 4.9614 15.7393 6.70003V1.80003C15.7406 1.56328 15.695 1.32862 15.605 1.10963C15.515 0.890647 15.3825 0.691689 15.2151 0.524279C15.0477 0.356869 14.8487 0.224332 14.6297 0.134344C14.4107 0.0443549 14.1761 -0.00129827 13.9393 2.80926e-05H9.55932C9.30433 0.00399251 9.05528 0.0775265 8.83903 0.212692C8.62279 0.347857 8.44757 0.539519 8.33229 0.766988C8.21701 0.994457 8.16605 1.24909 8.18492 1.50341C8.20378 1.75772 8.29174 2.00205 8.43932 2.21003L8.83932 2.77003C9.05387 3.07816 9.16902 3.44456 9.16932 3.82003V7.66003C7.84926 5.70717 6.79972 3.58455 6.04932 1.35003C5.914 0.956273 5.65917 0.614564 5.32036 0.372561C4.98156 0.130558 4.57567 0.000325416 4.15932 2.80926e-05H1.70932C1.449 0.00314067 1.19274 0.0649639 0.959642 0.18089C0.726542 0.296815 0.52261 0.463854 0.363046 0.669557C0.203482 0.87526 0.0924002 1.11432 0.0380793 1.36893C-0.0162415 1.62353 -0.0124005 1.88711 0.049316 2.14003C1.39932 7.87003 4.22932 12.62 7.81932 15.14C8.03447 15.2929 8.30132 15.3545 8.5617 15.3114C8.82207 15.2683 9.05486 15.124 9.20932 14.91C9.28655 14.8032 9.34189 14.6821 9.37214 14.5537C9.4024 14.4254 9.40697 14.2923 9.38559 14.1622C9.36421 14.0321 9.31731 13.9074 9.24759 13.7955C9.17786 13.6836 9.08669 13.5866 8.97932 13.51C5.83932 11.31 3.33932 7.12003 2.06932 2.00003H4.16932C5.08955 4.79592 6.47574 7.41616 8.26932 9.75003C8.47661 10.0149 8.76211 10.2077 9.08524 10.3011C9.40837 10.3944 9.75271 10.3835 10.0693 10.27C10.3942 10.1568 10.6752 9.94424 10.8726 9.66248C11.07 9.38073 11.1738 9.04403 11.1693 8.70003V3.82003C11.1715 3.18433 11.0132 2.55836 10.7093 2.00003H13.7093V7.43003C13.7057 7.81857 13.8301 8.19749 14.0632 8.50833C14.2964 8.81918 14.6253 9.04467 14.9993 9.15003C15.3622 9.27079 15.7547 9.26864 16.1162 9.14391C16.4777 9.01919 16.7881 8.77884 16.9993 8.46003C18.4197 6.43363 19.6325 4.26939 20.6193 2.00003H23.4193C22.4662 3.8741 21.3661 5.66972 20.1293 7.37003C19.8175 7.78722 19.6661 8.30267 19.7028 8.82224C19.7395 9.34181 19.9619 9.83084 20.3293 10.2C21.7878 11.6698 23.1006 13.2773 24.2493 15H20.8993C19.8659 13.2893 18.4781 11.8197 16.8293 10.69C16.5819 10.5088 16.2887 10.4005 15.9829 10.3775C15.6771 10.3546 15.371 10.4178 15.0993 10.56C14.82 10.703 14.5859 10.9209 14.4234 11.1894C14.261 11.4578 14.1764 11.7662 14.1793 12.08V14.46C14.1848 14.599 14.1354 14.7345 14.0419 14.8374C13.9484 14.9403 13.8181 15.0023 13.6793 15.01H12.8193C12.5541 15.01 12.2997 15.1154 12.1122 15.3029C11.9247 15.4905 11.8193 15.7448 11.8193 16.01C11.8193 16.2752 11.9247 16.5296 12.1122 16.7171C12.2997 16.9047 12.5541 17.01 12.8193 17.01H13.6793C14.0111 17.0074 14.3391 16.9393 14.6445 16.8096C14.9499 16.6799 15.2267 16.4912 15.459 16.2543C15.6912 16.0174 15.8744 15.7369 15.9981 15.429C16.1217 15.1211 16.1833 14.7918 16.1793 14.46V12.69C17.3822 13.5949 18.4006 14.7219 19.1793 16.01C19.3512 16.308 19.5971 16.5565 19.8931 16.7317C20.1892 16.9069 20.5254 17.0028 20.8693 17.01H24.2493C24.5949 17.0109 24.9344 16.9184 25.2318 16.7424C25.5293 16.5664 25.7737 16.3134 25.9393 16.01C26.1092 15.7004 26.194 15.3513 26.1853 14.9983C26.1765 14.6452 26.0744 14.3008 25.8893 14Z" fill="white"/>
</svg>
