<svg width="19" height="19" viewBox="0 0 19 19" fill="none" xmlns="http://www.w3.org/2000/svg">
<path d="M18.2542 8.86431C18.2505 10.4711 17.9016 11.8887 17.1966 13.2061C16.5323 14.4493 15.6157 15.4846 14.4616 16.301C13.4485 17.0172 12.3389 17.5071 11.1255 17.7594C9.78211 18.0377 8.43875 18.0081 7.10652 17.6889C6.40145 17.5182 5.72606 17.2585 5.09149 16.9133C4.98387 16.854 4.89109 16.8502 4.77606 16.8874C3.37703 17.3364 1.97801 17.7817 0.578984 18.227C0.419414 18.279 0.263555 18.3272 0.103984 18.3866C-0.00734396 18.4274 -0.0147658 18.3866 0.0149217 18.2938C0.178203 17.8151 0.337773 17.3364 0.501055 16.854C0.849883 15.8112 1.19871 14.7684 1.55496 13.7293C1.6032 13.592 1.5327 13.503 1.47703 13.4065C1.03914 12.6458 0.727422 11.8368 0.534453 10.9833C0.115117 9.14263 0.263555 7.33911 0.968633 5.59126C1.37684 4.58189 1.95945 3.67642 2.70535 2.87486C3.65535 1.85064 4.77977 1.09732 6.07859 0.592631C7.29207 0.121341 8.54637 -0.0604944 9.83778 0.0174353C11.6079 0.125052 13.2184 0.711381 14.6323 1.78013C16.4618 3.1606 17.6122 4.97525 18.0723 7.22779C18.1948 7.80298 18.2393 8.3856 18.2542 8.86431ZM9.21805 1.52036C8.87293 1.50552 8.46844 1.54634 8.06395 1.60572C7.90438 1.62798 7.74852 1.66138 7.59266 1.7022C5.18055 2.31451 3.44754 3.75435 2.42703 6.02173C1.83699 7.33169 1.67742 8.71587 1.90008 10.1335C2.07449 11.2542 2.49012 12.2858 3.13953 13.2172C3.21004 13.3211 3.22117 13.4102 3.18035 13.5252C2.90574 14.3305 2.63856 15.1395 2.36766 15.9485C2.35281 15.993 2.30828 16.045 2.3491 16.0858C2.38992 16.1303 2.44188 16.0821 2.48641 16.0672C3.2991 15.8075 4.1118 15.5514 4.91707 15.2805C5.10262 15.2174 5.23621 15.2471 5.39578 15.3436C7.21785 16.4383 9.16609 16.7278 11.2182 16.1823C12.7768 15.7704 14.0608 14.9206 15.0776 13.6663C16.061 12.4528 16.6102 11.0649 16.7216 9.51372C16.8069 8.32251 16.6214 7.1647 16.1464 6.05884C15.5489 4.66724 14.6175 3.55396 13.3595 2.72642C12.1274 1.91744 10.7655 1.50181 9.21805 1.52036Z" fill="#282828"/>
<path d="M4.78713 6.81972C4.80197 5.98476 5.12853 5.29824 5.76681 4.76386C5.94865 4.61172 6.1676 4.54863 6.40881 4.58945C6.51271 4.60429 6.62033 4.61914 6.72052 4.608C6.97287 4.58945 7.11759 4.73047 7.19552 4.93828C7.43302 5.56172 7.6631 6.18886 7.89689 6.8123C7.94142 6.93105 7.93029 7.03867 7.87463 7.15C7.7299 7.45058 7.49982 7.68437 7.26974 7.91816C7.06935 8.12226 7.05822 8.18906 7.19552 8.43769C7.85978 9.64004 8.77638 10.5752 10.0455 11.143C10.1086 11.1689 10.1643 11.2135 10.2236 11.2395C10.3832 11.3174 10.5279 11.31 10.6615 11.1727C10.9213 10.9092 11.1625 10.6271 11.3963 10.3377C11.5781 10.1113 11.6635 10.0779 11.9195 10.193C12.543 10.4824 13.1367 10.8201 13.7416 11.1467C13.942 11.2543 13.9643 11.4027 13.9346 11.6736C13.8121 12.7758 12.9697 13.2768 12.0086 13.4363C11.6858 13.4883 11.3815 13.4586 11.0772 13.3621C10.1865 13.0801 9.31076 12.7535 8.52404 12.2414C7.78928 11.7627 7.15842 11.1652 6.60549 10.4861C6.0674 9.82187 5.58869 9.12051 5.19162 8.35976C4.96896 7.92558 4.78713 7.25019 4.78713 6.81972Z" fill="#282828"/>
</svg>
