<svg width="13" height="13" viewBox="0 0 13 13" fill="none" xmlns="http://www.w3.org/2000/svg">
<path d="M5.61975 2.54004C5.61975 2.74068 5.61975 3.6594 5.61975 3.86004C5.61975 4.46746 6.99827 4.96004 8.69975 4.96004C10.4012 4.96004 11.7798 4.46746 11.7798 3.86004C11.7798 3.6594 11.7798 2.74068 11.7798 2.54004M7.28076 6.37654C7.70536 6.4553 8.18804 6.49996 8.69976 6.49996C10.4012 6.49996 11.7798 6.00738 11.7798 5.39996C11.7798 5.19932 11.7798 4.2806 11.7798 4.07996M5.61975 4.07996C5.61975 4.2806 5.61975 5.01936 5.61975 5.01936M7.38525 7.93505C7.78389 8.00237 8.22939 8.03999 8.69975 8.03999C10.4012 8.03999 11.7798 7.54763 11.7798 6.93999C11.7798 6.73935 11.7798 5.82064 11.7798 5.62M7.36829 9.47223C7.77111 9.54131 8.22277 9.58003 8.69973 9.58003C10.4012 9.58003 11.7797 9.08767 11.7797 8.48003C11.7797 8.27939 11.7797 7.36067 11.7797 7.16003M1.21973 6.28003C1.21973 6.48067 1.21973 7.39939 1.21973 7.60003C1.21973 8.20767 2.59825 8.70003 4.29973 8.70003C6.00121 8.70003 7.37973 8.20767 7.37973 7.60003C7.37973 7.39939 7.37973 6.48067 7.37973 6.28003M1.21973 7.81995C1.21973 8.02059 1.21973 8.93931 1.21973 9.13995C1.21973 9.74759 2.59825 10.2399 4.29973 10.2399C6.00121 10.2399 7.37973 9.74759 7.37973 9.13995C7.37973 8.93931 7.37973 8.02059 7.37973 7.81995M1.21973 9.35999C1.21973 9.56063 1.21973 10.4793 1.21973 10.68C1.21973 11.2876 2.59825 11.78 4.29973 11.78C6.00121 11.78 7.37973 11.2876 7.37973 10.68C7.37973 10.4793 7.37973 9.56063 7.37973 9.35999M11.7798 2.31997C11.7798 2.92748 10.4008 3.41997 8.69975 3.41997C6.99871 3.41997 5.61975 2.92748 5.61975 2.31997C5.61975 1.71246 6.99871 1.21997 8.69975 1.21997C10.4008 1.21997 11.7798 1.71246 11.7798 2.31997ZM7.37973 6.05996C7.37973 6.66747 6.00076 7.15996 4.29973 7.15996C2.59869 7.15996 1.21973 6.66747 1.21973 6.05996C1.21973 5.45245 2.59869 4.95996 4.29973 4.95996C6.00076 4.95996 7.37973 5.45245 7.37973 6.05996Z" stroke="white" stroke-width="0.6" stroke-miterlimit="10" stroke-linecap="round" stroke-linejoin="round"/>
</svg>
